<?xml version="1.0" encoding="UTF-8" standalone="yes"?>
<svg xmlns="http://www.w3.org/2000/svg" viewBox="0 0 50 50" width="250" height="250" fill="#000000">
  <path d="M 25 4.6875 C 15.800781 4.6875 8.40625 12.113281 8.40625 21.3125 C 8.40625 25.984375 10.324219 30.175781 13.40625 33.1875 C 13.652344 33.507813 14.003906 33.910156 14.46875 34.21875 L 14.5 34.25 L 14.53125 34.25 C 14.617188 34.296875 14.699219 34.332031 14.78125 34.375 C 17.234375 36.292969 20.238281 37.523438 23.53125 37.8125 C 24.085938 37.867188 24.617188 37.90625 25.1875 37.90625 C 25.699219 37.902344 26.191406 37.863281 26.6875 37.8125 C 35.078125 37.0625 41.59375 30.09375 41.59375 21.5 C 41.59375 21.46875 41.59375 21.4375 41.59375 21.40625 C 41.59375 21.375 41.59375 21.34375 41.59375 21.3125 C 41.59375 12.113281 34.199219 4.6875 25 4.6875 Z M 38.8125 4.90625 C 38.8125 4.90625 40.210938 7.3125 40.8125 7.8125 C 41.511719 8.414063 43.09375 9.1875 43.09375 9.1875 C 43.09375 9.1875 42.3125 6.894531 41.3125 6.09375 C 40.3125 5.292969 38.8125 4.90625 38.8125 4.90625 Z M 11.3125 5.09375 C 11.3125 5.09375 9.207031 5.894531 8.40625 6.59375 C 7.105469 7.894531 6.8125 9.5 6.8125 9.5 C 6.8125 9.5 8.207031 8.792969 9.40625 7.59375 C 10.40625 6.59375 11.3125 5.09375 11.3125 5.09375 Z M 25 6.1875 C 25.210938 6.1875 25.414063 6.210938 25.625 6.21875 L 25.6875 8.90625 C 25.6875 8.90625 24.988281 9.011719 24.1875 8.8125 C 23.386719 8.613281 23.09375 8.40625 23.09375 8.40625 C 23.09375 8.40625 23.492188 7.613281 24.09375 6.8125 C 24.257813 6.574219 24.398438 6.375 24.53125 6.21875 C 24.6875 6.214844 24.839844 6.1875 25 6.1875 Z M 24 6.25 C 23.8125 6.480469 23.617188 6.730469 23.5 7 C 23.199219 7.699219 22.6875 8.3125 22.6875 8.3125 L 21.6875 7.8125 C 21.289063 7.511719 21.09375 7.3125 21.09375 7.3125 C 21.09375 7.3125 21.476563 6.886719 22.1875 6.46875 C 22.777344 6.355469 23.386719 6.289063 24 6.25 Z M 26.09375 6.25 C 26.570313 6.285156 27.039063 6.359375 27.5 6.4375 C 27.597656 6.570313 27.71875 6.726563 27.8125 6.90625 C 28.210938 7.707031 28.59375 8.59375 28.59375 8.59375 C 28.59375 8.59375 28.007813 8.90625 27.40625 8.90625 C 26.804688 9.007813 26.09375 8.90625 26.09375 8.90625 Z M 28.0625 6.5 C 28.921875 6.679688 29.761719 6.960938 30.5625 7.28125 C 30.726563 7.429688 30.90625 7.59375 30.90625 7.59375 C 30.90625 7.59375 30.585938 7.792969 30.1875 8.09375 C 29.789063 8.394531 29.1875 8.5 29.1875 8.5 C 29.1875 8.5 28.800781 7.59375 28.5 7.09375 C 28.398438 6.925781 28.226563 6.710938 28.0625 6.5 Z M 7 6.6875 C 7 6.6875 5.09375 7.789063 4.59375 9.1875 C 4.195313 10.289063 4.386719 11.398438 4.1875 12.5 C 3.988281 13.601563 4.3125 14.40625 4.3125 14.40625 C 4.3125 14.40625 4.394531 14.105469 5.09375 13.40625 C 5.792969 12.707031 6.800781 12.3125 7.5 11.8125 C 9.101563 10.710938 9.8125 9 9.8125 9 C 9.8125 9 8.90625 9.792969 8.40625 10.09375 C 8.007813 10.292969 7.101563 10.789063 6.5 11.1875 C 6 11.488281 5.6875 12.5 5.6875 12.5 C 5.6875 12.5 5.113281 12.007813 5.3125 11.40625 C 5.511719 10.804688 5.804688 10.289063 5.90625 9.6875 C 6.007813 9.085938 6.199219 8.210938 6.5 7.8125 C 6.699219 7.414063 7 6.6875 7 6.6875 Z M 43.09375 6.6875 C 43.09375 6.6875 43.386719 7.601563 43.6875 8 C 43.988281 8.398438 44 9.5 44.5 10.5 C 44.800781 11.5 45.105469 11.992188 44.90625 12.09375 C 44.707031 12.292969 44.09375 11.6875 43.59375 11.1875 C 43.09375 10.6875 42.199219 10.40625 41.5 9.90625 C 40.800781 9.40625 40.40625 9 40.40625 9 C 40.40625 9 40.8125 10.511719 41.8125 11.3125 C 42.414063 11.710938 43.988281 12.90625 44.6875 13.40625 C 45.386719 13.90625 45.6875 14.40625 45.6875 14.40625 C 45.6875 14.40625 45.707031 10.605469 45.40625 9.40625 C 45.007813 8.207031 43.09375 6.6875 43.09375 6.6875 Z M 21.1875 6.71875 C 21.105469 6.777344 20.90625 6.90625 20.90625 6.90625 C 20.90625 6.90625 20.84375 6.863281 20.78125 6.8125 C 20.914063 6.773438 21.050781 6.753906 21.1875 6.71875 Z M 20.5 6.90625 L 20.59375 7 C 20.59375 7 19.992188 7.40625 19.59375 7.90625 C 19.09375 8.40625 18.90625 8.8125 18.90625 8.8125 L 19.1875 9.09375 C 19.1875 9.09375 19.507813 8.585938 19.90625 8.1875 C 20.304688 7.789063 20.8125 7.40625 20.8125 7.40625 C 20.8125 7.40625 21.386719 7.988281 21.6875 8.1875 C 22.085938 8.386719 22.59375 8.59375 22.59375 8.59375 C 22.59375 8.59375 22.605469 8.886719 22.40625 9.1875 C 22.304688 9.488281 22.09375 10 22.09375 10 L 22.40625 10.1875 C 22.40625 10.1875 22.613281 9.511719 22.8125 9.3125 C 22.914063 9.011719 23 8.8125 23 8.8125 C 23 8.8125 23.800781 9.113281 24.5 9.3125 C 25.199219 9.414063 25.6875 9.40625 25.6875 9.40625 L 25.6875 12.1875 L 24.6875 12.1875 L 24.6875 12.6875 L 25.8125 12.6875 L 25.8125 16.1875 L 24.90625 16.1875 L 24.90625 16.59375 L 25.8125 16.59375 L 25.8125 17.90625 L 26.1875 17.90625 L 26.1875 16.59375 L 28.1875 16.59375 C 29.6875 16.492188 30.59375 16.40625 30.59375 16.40625 C 30.59375 16.40625 30.605469 15.09375 30.40625 14.09375 C 30.304688 13.09375 30.09375 12.3125 30.09375 12.3125 C 30.09375 12.3125 30.90625 12.210938 31.90625 11.8125 C 32.804688 11.414063 33.59375 11.09375 33.59375 11.09375 C 33.59375 11.09375 34.101563 11.8125 34.5 12.8125 C 34.898438 13.8125 35.1875 14.8125 35.1875 14.8125 L 34.59375 15.09375 L 34.6875 15.40625 L 35.40625 15.1875 L 35.59375 15.59375 L 35.90625 15.5 L 35.6875 15.09375 C 35.6875 15.09375 36.605469 14.804688 37.40625 14.40625 C 37.71875 14.234375 37.929688 14.074219 38.15625 13.9375 C 39.390625 16.121094 40.09375 18.640625 40.09375 21.3125 C 40.09375 26.539063 37.414063 31.160156 33.34375 33.875 C 33.34375 33.875 32.988281 33.777344 32.625 33.53125 C 32.261719 33.285156 31.9375 33 31.9375 32.3125 C 31.9375 32.058594 31.957031 31.851563 31.96875 31.75 C 31.980469 31.648438 31.96875 31.65625 31.96875 31.65625 C 31.964844 31.660156 32.320313 31.4375 33.5 31.4375 C 35.390625 31.4375 36.953125 30.183594 38 28.5625 C 39.046875 26.941406 39.65625 24.914063 39.65625 23 C 39.65625 21.648438 38.828125 20.160156 37.5 18.875 C 36.171875 17.589844 34.277344 16.5625 32 16.5625 C 30.648438 16.5625 29.894531 17.578125 29.75 17.6875 C 29.796875 17.652344 29.675781 17.753906 29.5 17.8125 C 29.324219 17.871094 29.089844 17.929688 28.84375 18 C 28.347656 18.140625 27.832031 18.234375 27.34375 18.625 L 27.3125 18.625 L 27.28125 18.65625 C 27.011719 18.925781 26.933594 19.09375 26.8125 19.28125 C 26.519531 19.308594 26.097656 19.34375 26 19.34375 C 25.933594 19.34375 25.71875 19.324219 25.4375 19.34375 C 25.15625 19.363281 24.765625 19.484375 24.46875 19.78125 C 24.132813 20.117188 24.082031 20.476563 24.09375 20.78125 C 24.035156 20.828125 24.03125 20.8125 23.96875 20.875 C 23.933594 20.898438 23.878906 20.917969 23.84375 20.9375 C 23.746094 20.992188 23.65625 21.03125 23.65625 21.03125 L 23.3125 21.21875 L 23.25 21.59375 L 23.21875 21.84375 C 23.183594 21.855469 23.195313 21.863281 23.15625 21.875 L 23.1875 21.9375 C 23.023438 21.972656 22.851563 21.992188 22.71875 22.125 C 22.523438 22.320313 22.464844 22.527344 22.4375 22.65625 C 22.386719 22.914063 22.398438 23.023438 22.375 23.125 L 22.34375 23.21875 L 22.34375 23.3125 C 22.34375 23.074219 22.355469 23.230469 22.15625 23.5 C 21.957031 23.769531 21.65625 24.210938 21.65625 24.8125 C 21.65625 25.308594 21.875 25.59375 22.09375 25.875 C 22.3125 26.15625 22.578125 26.410156 22.84375 26.65625 C 23.375 27.148438 23.972656 27.628906 24.0625 27.71875 C 24.0625 27.71875 24.136719 27.820313 24.15625 28.09375 C 24.175781 28.367188 24.15625 28.757813 24.15625 29.1875 C 24.15625 29.710938 24.28125 30.113281 24.375 30.4375 C 24.46875 30.761719 24.5625 31.039063 24.5625 31.5 C 24.5625 31.570313 24.566406 31.5625 24.5 31.625 C 24.433594 31.6875 24.257813 31.769531 24.03125 31.84375 C 23.578125 31.988281 22.910156 32.0625 22.40625 32.0625 C 21.214844 32.0625 20.171875 32.28125 19.1875 32.71875 L 19.15625 32.71875 L 19.125 32.75 C 18.378906 33.164063 17.363281 33.34375 16.6875 33.34375 C 16.207031 33.34375 15.972656 33.265625 15.625 33.09375 C 15.261719 32.804688 14.925781 32.507813 14.59375 32.1875 C 14.542969 32.125 14.464844 32.035156 14.4375 32 L 14.4375 31.28125 C 14.609375 31.304688 14.773438 31.351563 15.3125 31.40625 C 16.0625 31.484375 17.183594 31.5625 18.90625 31.5625 C 20.648438 31.5625 21.769531 31.425781 22.59375 31.09375 C 23.007813 30.925781 23.351563 30.695313 23.59375 30.375 C 23.835938 30.054688 23.9375 29.664063 23.9375 29.3125 C 23.9375 28.835938 23.652344 28.378906 23.34375 28.15625 C 23.035156 27.933594 22.71875 27.851563 22.40625 27.78125 C 21.777344 27.644531 21.15625 27.65625 20.90625 27.65625 C 20.488281 27.65625 20.160156 27.914063 20.03125 28.03125 C 20.011719 28.019531 19.746094 27.96875 19.375 27.8125 C 18.964844 27.640625 18.449219 27.398438 17.875 27.0625 L 17.875 27.03125 L 17.84375 27.03125 C 17.265625 26.71875 17.019531 26.453125 16.90625 26.3125 C 16.867188 26.261719 16.855469 26.238281 16.84375 26.21875 L 16.84375 21.84375 C 16.917969 21.769531 16.988281 21.65625 17.1875 21.65625 C 17.394531 21.65625 17.359375 21.65625 17.65625 21.78125 C 17.953125 21.90625 18.417969 22.0625 19.1875 22.0625 C 19.972656 22.0625 20.613281 21.804688 21 21.4375 C 21.386719 21.070313 21.546875 20.679688 21.65625 20.5 L 21.6875 20.4375 C 21.734375 20.371094 21.75 20.339844 21.875 20.25 C 22.003906 20.15625 22.242188 19.890625 22.40625 19.59375 L 22.4375 19.625 C 22.464844 19.582031 22.445313 19.570313 22.46875 19.53125 C 22.480469 19.507813 22.488281 19.496094 22.5 19.46875 L 22.46875 19.46875 C 22.660156 19.085938 22.6875 18.765625 22.6875 18.5 C 22.6875 18.351563 22.695313 18.320313 22.6875 18.21875 C 23.082031 17.832031 23.9375 16.867188 23.9375 15.1875 C 23.9375 13.496094 22.84375 12.140625 21.5625 11.21875 C 20.347656 10.34375 18.957031 9.832031 17.78125 9.78125 C 17.761719 9.769531 17.738281 9.757813 17.71875 9.75 C 17.699219 9.75 17.675781 9.75 17.65625 9.75 C 17.636719 9.75 17.613281 9.75 17.59375 9.75 C 16.179688 9.75 14.828125 10.257813 13.875 11.1875 C 13.738281 11.320313 13.621094 11.476563 13.5 11.625 C 13.488281 11.644531 13.476563 11.667969 13.46875 11.6875 C 12.726563 12.800781 12.5625 14.15625 12.5625 15 C 12.5625 15.800781 12.636719 16.339844 12.71875 16.71875 C 12.800781 17.097656 12.84375 17.257813 12.84375 17.5 C 12.84375 17.429688 12.707031 17.785156 12.3125 18.09375 C 11.917969 18.402344 11.371094 18.691406 11.09375 18.8125 C 10.730469 18.96875 10.359375 19.210938 10.03125 19.4375 C 10.425781 16.277344 11.828125 13.4375 13.875 11.1875 C 15.65625 9.226563 17.917969 7.722656 20.5 6.90625 Z M 31.09375 7.8125 C 31.09375 7.8125 31.90625 8.613281 32.40625 9.3125 C 33.007813 10.011719 33.40625 10.6875 33.40625 10.6875 C 33.40625 10.6875 32.710938 11.007813 31.8125 11.40625 C 31.011719 11.804688 29.90625 11.90625 29.90625 11.90625 C 29.90625 11.90625 30.011719 11.300781 29.8125 10.5 C 29.710938 9.699219 29.1875 9 29.1875 9 C 29.1875 9 29.914063 8.707031 30.3125 8.40625 C 30.8125 8.105469 31.09375 7.8125 31.09375 7.8125 Z M 32.21875 8.0625 C 33.171875 8.585938 34.058594 9.199219 34.875 9.90625 C 34.488281 10.171875 34 10.40625 34 10.40625 C 34 10.40625 33.398438 9.601563 33 9 C 32.703125 8.644531 32.496094 8.40625 32.21875 8.0625 Z M 28.8125 9.1875 C 28.8125 9.1875 29.011719 9.5 29.3125 10.5 C 29.511719 11.398438 29.59375 12.09375 29.59375 12.09375 C 29.59375 12.09375 28.8125 12.304688 27.8125 12.40625 C 26.710938 12.507813 26.09375 12.3125 26.09375 12.3125 L 26.09375 9.40625 C 26.09375 9.40625 26.707031 9.507813 27.40625 9.40625 C 28.105469 9.40625 28.8125 9.1875 28.8125 9.1875 Z M 35.1875 10.1875 C 36.257813 11.167969 37.183594 12.3125 37.9375 13.5625 C 37.769531 13.6875 37.59375 13.8125 37.40625 13.90625 C 36.707031 14.207031 35.5 14.6875 35.5 14.6875 C 35.5 14.6875 35.085938 13.292969 34.6875 12.59375 C 34.289063 11.894531 34 11 34 11 C 34 11 34.40625 10.804688 34.90625 10.40625 C 35.058594 10.28125 35.0625 10.285156 35.1875 10.1875 Z M 46.8125 10.40625 C 46.8125 10.40625 46.992188 11.304688 47.09375 11.90625 C 47.195313 12.507813 47.007813 14.90625 46.90625 15.40625 C 46.804688 15.90625 47.113281 17.210938 46.8125 17.3125 C 46.511719 17.414063 45.707031 15.800781 44.90625 15 C 44.207031 14.300781 42.6875 13.40625 42.6875 13.40625 C 42.6875 13.40625 43.304688 14.6875 43.90625 15.6875 C 44.304688 16.789063 45.585938 18.113281 46.1875 18.8125 C 46.6875 19.613281 47 20.09375 47 20.09375 C 47 20.09375 47.289063 19.011719 47.6875 18.3125 C 48.585938 16.914063 48.5 16.488281 48.5 14.6875 C 48.5 12.886719 46.8125 10.40625 46.8125 10.40625 Z M 3.1875 10.59375 C 3.1875 10.59375 1.792969 12.488281 1.59375 14.1875 C 1.394531 15.886719 1.488281 17.300781 2.1875 18.5 C 2.6875 19.300781 2.8125 20.40625 2.8125 20.40625 C 2.8125 20.40625 2.992188 19.789063 3.59375 19.1875 C 4.195313 18.585938 5.207031 17.699219 5.90625 16.5 C 6.605469 15.300781 7.1875 13.6875 7.1875 13.6875 C 7.1875 13.6875 6.105469 14.304688 5.40625 14.90625 C 3.804688 16.304688 3 17.6875 3 17.6875 C 3 17.6875 2.585938 17.289063 2.6875 16.6875 C 2.988281 16.1875 3.101563 15.292969 3 14.59375 C 2.898438 13.992188 2.707031 13.613281 2.90625 12.8125 C 3.007813 12.011719 3.1875 10.59375 3.1875 10.59375 Z M 17.59375 11.25 C 17.613281 11.25 17.636719 11.25 17.65625 11.25 C 18.359375 11.269531 19.667969 11.703125 20.6875 12.4375 C 21.734375 13.191406 22.4375 14.179688 22.4375 15.1875 C 22.4375 16.503906 21.40625 17.4375 21.40625 17.4375 L 21.125 17.6875 L 21.15625 18.09375 C 21.15625 18.09375 21.1875 18.285156 21.1875 18.5 C 21.1875 18.609375 21.171875 18.714844 21.15625 18.78125 L 21.09375 18.90625 C 21.046875 19.019531 21.121094 18.945313 21 19.03125 C 20.878906 19.117188 20.5625 19.355469 20.34375 19.71875 C 20.152344 20.039063 20.082031 20.238281 19.96875 20.34375 C 19.855469 20.449219 19.703125 20.5625 19.1875 20.5625 C 18.558594 20.5625 18.394531 20.480469 18.21875 20.40625 C 18.042969 20.332031 17.679688 20.15625 17.1875 20.15625 C 16.058594 20.15625 15.46875 21.09375 15.46875 21.09375 L 15.34375 21.28125 L 15.34375 26.46875 L 15.375 26.53125 C 15.375 26.53125 15.382813 26.6875 15.4375 26.8125 C 15.492188 26.9375 15.585938 27.082031 15.71875 27.25 C 15.976563 27.574219 16.433594 27.964844 17.125 28.34375 C 17.140625 28.351563 17.140625 28.367188 17.15625 28.375 C 17.765625 28.726563 18.332031 29.019531 18.8125 29.21875 C 19.300781 29.421875 19.644531 29.5625 20.09375 29.5625 C 20.511719 29.5625 20.839844 29.273438 20.96875 29.15625 C 21.234375 29.15625 21.6875 29.167969 22.0625 29.25 C 22.246094 29.289063 22.382813 29.339844 22.4375 29.375 C 22.433594 29.40625 22.425781 29.441406 22.40625 29.46875 C 22.371094 29.511719 22.269531 29.589844 22.03125 29.6875 C 21.554688 29.878906 20.5625 30.0625 18.90625 30.0625 C 17.226563 30.0625 16.136719 29.980469 15.4375 29.90625 C 14.738281 29.832031 14.480469 29.75 14.09375 29.75 C 13.960938 29.75 13.84375 29.753906 13.65625 29.8125 C 13.46875 29.871094 13.210938 30.046875 13.09375 30.25 C 13.0625 30.304688 13.050781 30.359375 13.03125 30.40625 C 11.109375 27.890625 9.925781 24.792969 9.90625 21.40625 C 9.964844 21.371094 10.015625 21.328125 10.0625 21.28125 C 10.0625 21.28125 11.226563 20.386719 11.6875 20.1875 C 12.109375 20.007813 12.6875 19.699219 13.21875 19.28125 C 13.75 18.863281 14.34375 18.367188 14.34375 17.5 C 14.34375 17.042969 14.257813 16.726563 14.1875 16.40625 C 14.117188 16.085938 14.0625 15.699219 14.0625 15 C 14.0625 14.441406 14.261719 13.21875 14.71875 12.53125 C 15.367188 11.746094 16.425781 11.25 17.59375 11.25 Z M 29.90625 12.59375 C 29.90625 12.59375 29.992188 13.195313 30.09375 14.09375 C 30.195313 14.894531 30.3125 16.09375 30.3125 16.09375 C 30.3125 16.09375 29.894531 16.210938 28.59375 16.3125 C 27.292969 16.414063 26.1875 16.3125 26.1875 16.3125 L 26.1875 12.6875 C 26.1875 12.6875 27.207031 12.8125 27.90625 12.8125 C 28.605469 12.8125 29.90625 12.59375 29.90625 12.59375 Z M 49.5 17.3125 C 49.5 17.3125 49.195313 18.304688 49.09375 18.90625 C 48.894531 19.707031 47.988281 20.710938 47.6875 21.8125 C 47.386719 22.914063 47.386719 23.59375 47.1875 23.59375 C 46.886719 23.59375 46.59375 22.789063 46.59375 22.1875 C 46.492188 21.488281 45.699219 20.40625 45 19.40625 C 44.300781 18.40625 44 18 44 18 C 44 18 44.1875 21.195313 44.6875 22.09375 C 45.1875 23.195313 45.710938 24.007813 46.3125 25.40625 C 46.664063 26.222656 46.714844 26.476563 46.71875 26.5625 C 46.765625 26.515625 47.125 26.1875 47.3125 25.90625 C 47.511719 25.605469 48.804688 24.511719 49.40625 22.3125 C 50.007813 20.011719 49.5 17.3125 49.5 17.3125 Z M 46.71875 26.5625 C 46.714844 26.566406 46.6875 26.59375 46.6875 26.59375 C 46.6875 26.59375 46.722656 26.625 46.71875 26.5625 Z M 0.5 17.40625 C 0.5 17.40625 0.289063 20.898438 0.6875 22.5 C 1.386719 25.101563 3.40625 26.6875 3.40625 26.6875 C 3.40625 26.6875 3.601563 25.804688 4 24.90625 C 4.398438 24.007813 5.105469 23.105469 5.40625 22.40625 C 5.90625 21.007813 6.09375 18.40625 6.09375 18.40625 C 6.09375 18.40625 5.585938 19.085938 5.1875 19.6875 C 4.789063 20.289063 4.3125 21.007813 3.8125 21.90625 C 3.414063 22.90625 3.304688 23.710938 2.90625 23.8125 C 2.304688 23.914063 2.8125 22.886719 2.3125 21.6875 C 1.8125 20.488281 1.007813 19.195313 0.90625 18.59375 C 0.804688 17.992188 0.5 17.40625 0.5 17.40625 Z M 32 18.0625 C 33.824219 18.0625 35.371094 18.871094 36.46875 19.9375 C 37.566406 21.003906 38.15625 22.351563 38.15625 23 C 38.15625 24.585938 37.59375 26.394531 36.71875 27.75 C 35.84375 29.105469 34.710938 29.9375 33.5 29.9375 C 32.179688 29.9375 31.371094 30.078125 30.84375 30.65625 C 30.578125 30.945313 30.5 31.3125 30.46875 31.59375 C 30.4375 31.875 30.4375 32.117188 30.4375 32.3125 C 30.4375 33.527344 31.144531 34.351563 31.78125 34.78125 C 29.742188 35.816406 27.429688 36.40625 25 36.40625 C 22.515625 36.40625 20.167969 35.765625 18.09375 34.6875 C 18.660156 34.570313 19.265625 34.390625 19.8125 34.09375 C 19.835938 34.082031 19.851563 34.074219 19.875 34.0625 C 20.667969 33.71875 21.421875 33.5625 22.40625 33.5625 C 23 33.5625 23.777344 33.511719 24.5 33.28125 C 24.859375 33.167969 25.195313 33.003906 25.5 32.71875 C 25.804688 32.433594 26.0625 31.980469 26.0625 31.5 C 26.0625 30.859375 25.917969 30.382813 25.8125 30.03125 C 25.707031 29.679688 25.65625 29.460938 25.65625 29.1875 C 25.65625 28.820313 25.6875 28.425781 25.65625 28 C 25.625 27.574219 25.523438 27.054688 25.125 26.65625 C 24.816406 26.347656 24.3125 25.996094 23.84375 25.5625 C 23.609375 25.347656 23.414063 25.140625 23.28125 24.96875 C 23.222656 24.894531 23.171875 24.851563 23.15625 24.8125 C 23.15625 24.738281 23.140625 24.746094 23.15625 24.78125 C 23.160156 24.683594 23.203125 24.566406 23.34375 24.375 C 23.472656 24.199219 23.707031 23.921875 23.78125 23.46875 L 23.8125 23.46875 C 23.835938 23.378906 23.832031 23.386719 23.84375 23.3125 C 23.851563 23.269531 23.839844 23.253906 23.84375 23.21875 C 24.011719 23.152344 24.25 23.0625 24.25 23.0625 L 24.59375 22.90625 L 24.65625 22.5 L 24.6875 22.15625 C 24.777344 22.113281 24.867188 22.101563 25.03125 21.9375 C 25.144531 21.824219 25.25 21.78125 25.25 21.78125 L 25.84375 21.46875 L 25.59375 20.84375 C 25.667969 20.84375 25.785156 20.84375 26 20.84375 C 26.464844 20.84375 27.28125 20.75 27.28125 20.75 L 27.65625 20.71875 L 27.84375 20.375 C 27.84375 20.375 28.097656 19.992188 28.28125 19.78125 C 28.285156 19.777344 28.308594 19.785156 28.3125 19.78125 C 28.351563 19.761719 28.785156 19.570313 29.25 19.4375 C 29.488281 19.371094 29.734375 19.296875 29.96875 19.21875 C 30.203125 19.140625 30.410156 19.09375 30.65625 18.90625 C 31.3125 18.414063 31.351563 18.0625 32 18.0625 Z M 44.09375 23.59375 C 44.09375 23.59375 43.710938 26.09375 43.8125 27.09375 C 43.914063 28.09375 44.195313 29.699219 44.09375 31 C 43.992188 32.300781 43.8125 33 43.8125 33 C 43.8125 33 47.8125 30.585938 48.8125 28.1875 C 49.511719 26.789063 50 24.40625 50 24.40625 L 49.1875 25.59375 C 48.6875 26.394531 47.699219 26.804688 47 27.90625 C 46.101563 29.304688 45.1875 30.09375 45.1875 30.09375 C 45.1875 30.09375 45.414063 27.894531 45.3125 27.09375 C 45.210938 26.292969 44.09375 23.59375 44.09375 23.59375 Z M 6.09375 23.90625 C 6.09375 23.90625 4.886719 26.195313 4.6875 28.09375 C 4.488281 29.195313 4.988281 30.304688 4.6875 30.40625 C 4.386719 30.40625 3.1875 28.195313 2.6875 27.59375 C 1.988281 26.792969 1.601563 26.507813 1 25.90625 C 0.398438 25.40625 0 24.40625 0 24.40625 C 0 24.40625 0.113281 25.488281 0.3125 26.1875 C 0.511719 26.988281 1.699219 29.613281 3 30.8125 C 4.300781 32.011719 6.1875 33.3125 6.1875 33.3125 C 6.1875 33.3125 6.105469 32.300781 5.90625 31.5 C 5.707031 30.699219 6.210938 29.085938 6.3125 27.6875 C 6.414063 26.289063 6.09375 23.90625 6.09375 23.90625 Z M 42.59375 28.5 C 42.59375 28.5 41.386719 30.992188 41.1875 32.09375 C 40.789063 33.292969 40.699219 35.195313 40.5 36.09375 C 40.300781 36.992188 39.90625 37.40625 39.90625 37.40625 C 39.90625 37.40625 43.601563 37.113281 45.5 35.8125 C 48.300781 33.8125 48.90625 30.40625 48.90625 30.40625 C 48.90625 30.40625 47.894531 31.886719 46.59375 32.6875 C 45.695313 33.1875 44.207031 33.992188 43.40625 34.59375 C 42.507813 35.195313 42.398438 36.011719 42 35.8125 C 41.699219 35.613281 42.199219 34.511719 42.5 33.8125 C 42.800781 33.113281 42.914063 32.207031 42.8125 31.40625 C 42.613281 30.707031 42.59375 28.5 42.59375 28.5 Z M 7.5 28.6875 C 7.5 28.6875 7.507813 29.5 7.40625 30 C 7.207031 31 7.386719 33.40625 7.6875 34.40625 C 7.886719 35.304688 8.492188 35.894531 8.09375 36.09375 C 7.695313 36.292969 7.414063 35.699219 6.8125 35 C 6.113281 34.300781 4.292969 33.6875 3.09375 32.6875 C 1.894531 31.6875 1.09375 30.59375 1.09375 30.59375 C 1.09375 30.59375 2.09375 32.710938 3.09375 34.3125 C 4.09375 35.914063 6.695313 36.789063 7.59375 37.1875 C 8.492188 37.488281 10.40625 37.59375 10.40625 37.59375 C 10.40625 37.59375 9.800781 36.914063 9.5 35.8125 C 9.300781 34.8125 9.289063 32.492188 8.6875 31.09375 C 8.085938 29.59375 7.5 28.6875 7.5 28.6875 Z M 39.5 33.5 C 39.5 33.5 37.492188 35.300781 36.59375 36.5 C 35.792969 37.601563 35.585938 38.699219 34.6875 39.5 C 33.6875 40.398438 33.09375 40.59375 33.09375 40.59375 C 33.09375 40.59375 34.1875 40.800781 34.6875 40.5 C 35.289063 40.300781 36.113281 40.507813 36.8125 40.90625 C 37.511719 41.304688 39.695313 41.300781 41.59375 40.5 C 44.59375 39.300781 45.3125 37 45.3125 37 C 45.3125 37 44.292969 37.707031 43.09375 38.40625 C 41.894531 39.105469 40.710938 39.101563 39.8125 39 C 38.914063 38.898438 38.195313 39.199219 37.59375 39.5 C 36.992188 39.800781 36.5 39.5 36.5 39.5 C 36.5 39.5 37.511719 38.886719 38.3125 37.1875 C 38.914063 35.988281 39.5 33.5 39.5 33.5 Z M 10.8125 33.6875 C 10.8125 33.6875 11.414063 36.398438 12.3125 38 C 12.914063 39.101563 13.789063 39.394531 13.6875 39.59375 C 13.585938 39.695313 12.800781 39.601563 12.5 39.5 C 12.300781 39.398438 11.398438 39.101563 10.5 39 C 9.5 38.898438 8.3125 39.207031 6.8125 38.40625 C 6.113281 38.007813 4.6875 36.90625 4.6875 36.90625 C 4.6875 36.90625 4.789063 37.398438 6.1875 39 C 8.085938 41.199219 10.488281 41.3125 11.6875 41.3125 C 12.988281 41.3125 14.386719 40.789063 15.1875 40.6875 C 15.988281 40.585938 17.1875 40.6875 17.1875 40.6875 C 17.1875 40.6875 16.304688 40.300781 15.40625 39.5 C 14.507813 38.800781 14.707031 38.011719 13.40625 36.3125 C 12.207031 34.710938 10.8125 33.6875 10.8125 33.6875 Z M 21.3125 40.90625 C 20.28125 40.878906 18.835938 41.050781 17.1875 41.5 C 14.988281 42 13.804688 42.492188 12.40625 42.59375 C 11.105469 42.695313 9.3125 41.8125 9.3125 41.8125 C 9.3125 41.8125 9.601563 42.585938 11 43.1875 C 12.601563 43.789063 15.105469 44.105469 16.40625 43.90625 C 17.707031 43.804688 18.3125 43.492188 19.8125 42.59375 C 21.3125 41.695313 22.007813 41.601563 22.90625 41.5 C 23.804688 41.5 23.8125 41.59375 23.8125 41.59375 C 23.8125 41.59375 22.3125 42.3125 20.8125 43.3125 C 19.414063 44.210938 18.3125 45.3125 18.3125 45.3125 L 18.90625 45.90625 C 18.90625 45.90625 19.101563 45.488281 20.5 44.1875 C 22 42.886719 24.300781 41.8125 25 41.8125 C 25.699219 41.8125 27.601563 42.8125 29 43.8125 C 30.398438 44.8125 31.1875 46 31.1875 46 L 31.90625 45.40625 C 31.90625 45.40625 29.707031 43.699219 28.90625 43 C 28.105469 42.300781 26.40625 41.6875 26.40625 41.6875 L 27.90625 41.6875 C 28.507813 41.789063 29.800781 42.386719 31 43.1875 C 32.199219 43.988281 33.292969 44.207031 36.09375 43.90625 C 40.695313 43.40625 40.90625 42 40.90625 42 C 40.90625 42 39.398438 42.6875 37.5 42.6875 C 36.101563 42.6875 33.800781 41.898438 32.5 41.5 C 31.199219 41.101563 29.992188 40.804688 29.09375 40.90625 C 27.292969 41.007813 25 41.40625 25 41.40625 C 25 41.40625 23.1875 41.199219 22.1875 41 C 21.9375 40.949219 21.65625 40.914063 21.3125 40.90625 Z"/>
</svg>
