<?xml version="1.0" standalone="no"?>
<!DOCTYPE svg PUBLIC "-//W3C//DTD SVG 20010904//EN"
 "http://www.w3.org/TR/2001/REC-SVG-20010904/DTD/svg10.dtd">
<svg version="1.0" xmlns="http://www.w3.org/2000/svg"
 width="700.000000pt" height="700.000000pt" viewBox="0 0 700.000000 700.000000"
 preserveAspectRatio="xMidYMid meet">
<metadata>
Created by potrace 1.11, written by Peter Selinger 2001-2013
</metadata>
<g transform="translate(0.000000,700.000000) scale(0.100000,-0.100000)"
fill="#000000" stroke="none">
<path d="M3427 6345 c-1 -1 -45 -5 -97 -9 -98 -7 -157 -13 -200 -21 -14 -3
-41 -7 -60 -10 -65 -11 -235 -55 -322 -85 -691 -238 -1235 -792 -1457 -1485
-32 -98 -59 -202 -68 -260 -2 -16 -8 -46 -13 -65 -5 -19 -12 -66 -16 -105 -4
-38 -8 -83 -10 -100 -6 -46 -6 -345 0 -385 3 -19 8 -60 11 -90 5 -55 11 -93
20 -140 3 -14 7 -34 9 -45 70 -359 278 -780 518 -1047 199 -221 240 -262 298
-296 25 -15 79 -51 120 -80 174 -125 396 -237 605 -306 114 -37 293 -80 380
-91 28 -4 60 -8 71 -10 178 -28 470 -23 671 11 49 8 102 17 118 20 72 12 259
69 363 110 431 168 812 473 1062 849 29 44 61 92 71 107 45 65 162 325 203
448 45 138 91 337 101 445 3 33 8 76 11 95 6 45 7 397 1 407 -3 4 -8 40 -11
78 -4 39 -9 84 -12 100 -92 521 -319 956 -680 1306 -75 72 -124 113 -264 222
-24 19 -128 86 -163 106 -18 10 -57 32 -87 49 -174 98 -492 209 -680 238 -19
3 -60 9 -90 14 -87 14 -392 33 -403 25z m-102 -270 c-18 -27 -52 -85 -75 -128
-66 -118 -64 -117 -158 -68 -43 23 -92 55 -108 72 l-29 30 40 34 c85 73 127
89 269 101 27 2 51 6 52 7 2 2 12 3 22 3 17 0 16 -6 -13 -51z m266 -72 c0 -71
2 -155 2 -188 l2 -60 -55 -3 c-98 -6 -284 40 -296 73 -6 14 52 113 134 228
l56 77 78 0 78 0 1 -127z m139 113 c135 -16 132 -13 209 -178 71 -152 70 -143
14 -162 -26 -8 -66 -18 -88 -21 -54 -7 -193 -8 -204 -1 -6 4 -9 361 -3 374 1
2 5 1 10 -1 4 -3 32 -8 62 -11z m317 -56 c159 -45 273 -95 273 -120 0 -5 -31
-29 -68 -54 -75 -50 -164 -86 -170 -68 -13 39 -89 185 -117 224 -39 53 -42 52
82 18z m-1107 -15 c-7 -8 -17 -12 -23 -8 -6 4 -3 9 9 14 27 11 28 11 14 -6z
m-60 -25 c0 -5 -4 -10 -10 -10 -15 0 -164 -151 -195 -198 l-28 -43 20 -20 20
-21 37 51 c36 48 129 139 171 167 20 13 26 10 78 -37 31 -29 84 -64 119 -80
35 -15 64 -35 66 -43 2 -9 -10 -50 -27 -92 -29 -71 -37 -104 -27 -104 2 0 10
-2 18 -5 9 -4 27 24 57 88 l43 93 107 -36 c101 -34 137 -41 224 -43 20 -1 38
-4 38 -7 1 -3 2 -89 3 -192 3 -212 9 -198 -81 -194 -29 1 -53 -1 -54 -6 -1 -4
-1 -17 -1 -28 0 -11 0 -24 1 -28 1 -5 36 -8 78 -8 l77 1 0 -239 c1 -267 5
-253 -76 -252 -41 1 -47 -2 -51 -22 -6 -29 14 -39 76 -36 29 1 47 -2 48 -10 1
-6 2 -47 2 -91 2 -78 3 -80 27 -80 24 0 25 2 26 75 1 41 2 82 3 91 1 14 19 16
139 16 75 0 178 3 227 7 165 11 240 18 244 22 8 7 -1 171 -14 269 -9 69 -17
123 -21 145 -2 14 -7 41 -10 60 -3 19 -9 50 -14 68 -7 27 -6 32 9 32 42 0 188
46 316 101 77 32 146 59 152 59 15 0 72 -97 116 -197 38 -86 107 -285 107
-306 0 -8 -17 -22 -39 -31 -30 -14 -38 -22 -33 -38 5 -21 25 -21 89 -2 18 5
25 1 33 -20 6 -17 17 -26 31 -26 21 0 22 9 5 50 -5 13 17 25 102 58 60 23 137
60 170 82 l62 39 24 -42 c59 -100 143 -315 181 -461 21 -83 45 -211 60 -326 6
-50 7 -353 1 -385 -2 -11 -7 -49 -11 -85 -4 -36 -8 -67 -10 -70 -2 -3 -6 -26
-10 -50 -3 -25 -11 -63 -17 -85 -5 -22 -12 -51 -15 -65 -19 -105 -120 -353
-205 -502 -132 -233 -315 -445 -535 -621 -131 -104 -132 -104 -188 -77 -107
52 -138 100 -140 212 -2 93 -2 93 155 103 180 12 223 21 325 66 107 47 265
191 348 316 104 156 185 354 223 541 22 107 28 323 10 388 -39 148 -128 289
-275 434 -161 160 -321 255 -519 307 -79 21 -122 26 -227 27 -128 1 -132 0
-195 -31 -36 -18 -89 -55 -118 -83 -34 -31 -69 -54 -95 -61 -210 -56 -287 -94
-328 -160 -13 -21 -31 -39 -39 -40 -187 -7 -218 -11 -260 -32 -51 -25 -100
-88 -104 -133 -3 -41 -11 -51 -64 -78 -42 -21 -47 -28 -57 -72 -8 -39 -16 -52
-40 -63 -42 -20 -64 -48 -70 -90 -8 -48 -34 -119 -47 -127 -5 -4 -23 -33 -38
-65 -38 -80 -36 -157 5 -222 30 -47 142 -160 254 -257 l63 -55 0 -117 c-1 -90
4 -139 23 -215 33 -138 38 -182 24 -199 -10 -13 -78 -37 -140 -50 -13 -2 -76
-7 -139 -10 -191 -9 -404 -54 -475 -100 -50 -33 -192 -72 -292 -80 -126 -11
-186 15 -315 138 -45 42 -48 48 -48 97 l0 51 43 -6 c23 -3 53 -8 67 -10 109
-18 636 -26 780 -12 238 23 374 92 425 215 30 72 11 172 -45 230 -81 87 -386
124 -461 56 -26 -23 -77 -8 -228 68 -86 43 -156 86 -190 116 l-53 48 1 255 c0
140 0 281 1 313 0 51 3 59 24 68 20 9 39 6 102 -15 133 -46 295 -43 392 8 46
24 98 79 131 139 18 31 38 60 45 65 6 4 30 30 53 57 43 52 62 105 69 187 3 39
12 58 47 102 129 158 163 390 85 581 -119 291 -539 555 -873 548 -142 -2 -308
-57 -423 -140 -57 -40 101 111 187 180 165 131 363 245 555 318 107 41 126 45
126 29z m1530 -174 c60 -64 207 -248 239 -300 13 -21 20 -41 15 -46 -5 -4 -65
-33 -134 -63 -120 -53 -200 -80 -265 -92 -16 -2 -40 -7 -52 -9 -22 -5 -23 -2
-23 54 0 87 -28 207 -65 282 l-34 68 77 40 c42 22 100 58 127 79 28 22 53 40
57 40 4 1 30 -23 58 -53z m210 -40 c63 -38 260 -184 260 -192 0 -6 -104 -64
-116 -64 -6 0 -42 44 -79 98 -38 53 -88 120 -112 148 -24 28 -43 54 -43 58 0
8 -1 8 90 -48z m-556 -162 c29 -72 61 -198 71 -285 l7 -56 -114 -20 c-136 -25
-353 -27 -367 -4 -5 7 -8 101 -8 207 l1 193 70 -1 c84 0 197 9 246 21 64 16
66 15 94 -55z m944 -151 c112 -117 230 -268 296 -380 10 -19 -53 -55 -201
-116 -112 -47 -132 -52 -136 -38 -21 70 -82 222 -121 299 -26 51 -56 117 -66
147 l-19 54 37 23 c20 12 57 37 81 55 24 18 46 33 49 33 3 0 39 -35 80 -77z
m-2425 -88 c147 -37 308 -128 409 -231 75 -77 102 -118 127 -192 47 -139 8
-282 -111 -408 l-48 -51 3 -69 c5 -80 -7 -109 -55 -146 -18 -14 -51 -55 -72
-92 -22 -37 -49 -72 -60 -78 -12 -6 -52 -13 -91 -14 -55 -1 -89 4 -155 27
-142 47 -244 26 -334 -71 -40 -42 -46 -55 -46 -92 -4 -482 1 -711 14 -743 45
-107 254 -248 537 -363 14 -5 51 -13 82 -17 51 -7 61 -4 111 24 50 28 61 30
118 25 71 -6 128 -21 128 -35 0 -17 -79 -48 -165 -63 -173 -31 -650 -28 -875
6 -148 22 -213 10 -258 -46 l-19 -25 -19 22 c-19 22 -65 91 -119 177 -85 136
-186 376 -230 544 -42 165 -53 236 -61 396 l-6 115 87 64 c47 35 135 90 194
121 170 90 271 172 314 255 27 53 29 128 6 245 -35 178 -13 394 51 519 49 92
185 180 318 205 76 14 141 12 225 -9z m-736 -112 c-30 -59 -63 -154 -72 -208
-4 -22 -9 -103 -11 -180 -2 -108 1 -164 16 -244 17 -90 18 -107 6 -125 -38
-57 -101 -103 -241 -174 -44 -23 -94 -51 -112 -62 -29 -19 -31 -19 -28 -3 5
21 34 172 40 206 28 148 147 433 257 611 48 78 156 226 164 226 2 0 -6 -21
-19 -47z m2348 -120 c9 -83 15 -124 20 -158 7 -50 18 -177 19 -224 1 -43 0
-45 -34 -52 -107 -21 -488 -36 -519 -20 -14 8 -16 36 -15 253 l1 243 64 -2
c169 -5 272 -2 354 10 50 7 93 12 96 10 4 -1 10 -29 14 -60z m509 -733 c274
-73 526 -303 615 -560 36 -104 24 -255 -34 -447 -81 -266 -243 -490 -413 -576
-73 -36 -100 -41 -262 -52 -154 -10 -215 -27 -272 -78 -49 -45 -68 -95 -75
-197 -9 -147 31 -257 130 -351 28 -27 49 -50 46 -53 -8 -8 -165 -75 -234 -100
-128 -45 -239 -73 -400 -101 -112 -19 -377 -25 -507 -11 -216 23 -433 80 -631
167 -146 64 -142 59 -62 81 39 11 110 37 158 59 132 59 203 73 422 84 159 7
246 27 325 73 138 80 170 205 105 413 -12 36 -18 97 -21 186 -5 208 -20 245
-148 352 -98 82 -169 152 -192 186 -16 24 -15 27 24 88 22 34 46 81 53 105 10
35 19 46 48 57 67 27 66 25 73 100 2 24 15 38 66 72 35 23 72 45 83 48 17 6
18 8 2 46 -8 22 -13 42 -11 44 3 3 49 8 104 11 140 8 159 10 171 17 6 4 25 31
43 61 38 63 64 77 240 132 110 34 155 60 216 122 48 49 65 54 164 48 52 -2
130 -14 174 -26z"/>
<path d="M5456 6278 c52 -100 203 -318 254 -367 44 -42 289 -191 314 -191 8 0
-36 114 -74 190 -84 168 -159 249 -290 315 -55 27 -201 85 -216 85 -2 0 3 -14
12 -32z"/>
<path d="M1450 6231 c-199 -89 -270 -139 -348 -243 -67 -88 -157 -286 -139
-304 16 -16 240 143 341 243 103 101 292 354 264 352 -7 0 -60 -22 -118 -48z"/>
<path d="M934 6034 c-115 -77 -220 -183 -264 -265 -39 -73 -59 -162 -65 -290
-5 -100 -11 -171 -20 -234 -6 -40 -6 -164 -1 -193 13 -65 15 -65 56 -13 76 96
121 133 285 231 150 89 212 137 279 214 56 65 122 160 149 213 14 31 14 32 -1
23 -9 -5 -37 -27 -62 -49 -24 -22 -78 -60 -120 -84 -41 -24 -119 -70 -172
-101 -116 -67 -154 -109 -195 -215 l-9 -24 -23 32 c-37 52 -38 99 -3 188 35
88 59 164 66 208 14 86 36 156 72 227 31 61 74 158 70 158 -2 0 -21 -12 -42
-26z"/>
<path d="M6040 6047 c0 -11 52 -129 74 -167 13 -25 37 -94 52 -155 14 -60 31
-118 36 -129 5 -10 30 -75 54 -145 36 -105 41 -128 30 -139 -20 -20 -59 3
-148 87 -47 45 -106 88 -168 122 -116 63 -188 110 -254 166 -27 24 -51 41 -53
39 -8 -8 53 -136 96 -201 49 -74 44 -70 372 -310 90 -66 187 -144 215 -172
l51 -53 -3 160 c-2 170 -11 369 -18 410 -3 14 -7 47 -11 75 -12 94 -75 186
-230 337 -69 68 -95 88 -95 75z"/>
<path d="M6561 5520 c0 -8 8 -60 18 -115 22 -122 20 -307 -6 -510 -4 -27 -7
-108 -7 -180 -1 -123 -2 -130 -21 -130 -13 0 -40 26 -77 75 -31 41 -57 79 -58
83 0 17 -112 148 -164 193 -48 41 -200 148 -248 175 -14 8 -16 6 -11 -8 7 -19
67 -134 113 -218 15 -27 45 -84 67 -126 49 -93 101 -164 213 -294 48 -55 112
-140 143 -189 31 -50 58 -83 61 -75 22 75 65 183 88 224 56 98 98 191 107 239
16 86 14 324 -4 399 -21 92 -65 200 -131 326 -63 119 -84 153 -83 131z"/>
<path d="M404 5453 c-147 -230 -195 -398 -189 -663 4 -168 22 -246 85 -369 45
-87 74 -167 85 -231 l7 -43 30 55 c17 33 74 101 138 166 172 176 240 263 308
398 5 11 17 33 26 50 22 43 106 245 106 255 0 11 -86 -41 -180 -110 -118 -86
-321 -304 -389 -418 -10 -17 -12 -17 -26 2 -34 43 -36 86 -10 163 30 90 36
172 18 281 -19 116 -21 139 -12 186 4 22 11 67 14 100 4 33 13 99 19 148 7 48
11 87 9 87 -1 0 -19 -26 -39 -57z"/>
<path d="M6896 4448 c-32 -129 -40 -148 -112 -275 -79 -137 -100 -189 -128
-314 -35 -154 -37 -159 -50 -159 -39 1 -65 58 -81 180 -10 74 -66 174 -215
388 -77 111 -143 202 -145 202 -4 0 5 -114 21 -259 8 -75 30 -193 45 -241 6
-19 58 -127 114 -240 103 -205 177 -372 190 -423 l7 -27 27 29 c288 313 381
531 386 901 2 154 -11 328 -25 343 -4 4 -19 -43 -34 -105z"/>
<path d="M68 4534 c-6 -23 -2 -521 5 -549 2 -11 7 -42 11 -70 16 -117 92 -291
186 -423 51 -73 186 -222 200 -222 4 0 17 35 30 78 13 42 26 84 30 92 5 8 16
35 26 60 10 25 54 105 97 179 105 177 130 238 151 366 39 234 53 371 37 361
-12 -8 -221 -323 -273 -412 -20 -34 -52 -109 -72 -165 -42 -120 -63 -153 -99
-157 -31 -4 -33 3 -41 130 -7 105 -26 158 -129 365 -45 89 -87 189 -102 244
-15 51 -32 104 -39 117 -12 22 -13 23 -18 6z"/>
<path d="M6169 3680 c-2 -31 -16 -138 -24 -200 -10 -72 -13 -277 -5 -335 41
-289 44 -493 11 -670 -5 -25 -7 -45 -4 -45 2 0 -1 -9 -7 -20 -23 -43 23 -18
188 103 251 184 416 359 501 532 61 125 170 473 159 506 -2 6 -31 -29 -63 -77
-61 -90 -100 -132 -222 -241 -38 -34 -92 -94 -119 -134 -63 -94 -149 -203
-209 -265 l-47 -48 7 99 c15 203 13 316 -7 389 -18 67 -132 376 -149 406 -7
13 -9 13 -10 0z"/>
<path d="M793 3522 c-128 -300 -159 -471 -128 -711 8 -59 7 -63 -11 -59 -22 4
-77 78 -192 256 -70 109 -109 156 -241 289 -111 112 -166 175 -189 218 -25 47
-31 53 -27 30 30 -207 55 -283 152 -474 138 -273 233 -380 549 -617 139 -105
173 -127 161 -106 -3 4 -7 34 -11 67 -3 33 -8 71 -11 85 -30 155 -30 186 6
390 28 161 33 210 33 335 0 153 -21 402 -34 410 -4 3 -30 -48 -57 -113z"/>
<path d="M5903 2878 c-112 -251 -160 -413 -192 -643 -5 -38 -13 -97 -17 -130
-3 -33 -8 -69 -10 -80 -2 -11 -7 -33 -10 -50 -11 -67 -27 -113 -56 -164 -27
-46 -28 -52 -12 -48 11 3 46 9 79 13 83 10 82 10 155 23 226 42 418 111 540
194 168 115 352 377 425 607 14 47 30 95 35 107 14 33 -10 20 -39 -23 -47 -68
-257 -264 -284 -264 -11 0 -321 -182 -395 -232 -68 -46 -93 -69 -183 -171 -24
-27 -39 -36 -52 -32 -27 11 -21 69 19 170 76 194 86 233 87 345 1 58 -2 121
-6 140 -7 36 -16 151 -21 272 -1 38 -5 70 -8 73 -3 3 -28 -45 -55 -107z"/>
<path d="M1049 2930 c0 -30 -2 -64 -4 -75 -17 -88 -23 -309 -11 -415 14 -124
20 -163 38 -234 10 -44 32 -108 49 -144 32 -71 35 -92 17 -110 -29 -29 -62 -7
-142 96 -61 77 -102 106 -299 211 -218 115 -315 193 -490 391 l-49 55 50 -100
c55 -112 173 -327 216 -394 55 -86 176 -196 276 -250 281 -151 419 -196 670
-217 l84 -7 -17 24 c-53 76 -100 182 -110 249 -7 45 -22 169 -32 275 -24 240
-85 422 -219 655 l-26 45 -1 -55z"/>
<path d="M5380 2167 c-220 -216 -268 -277 -364 -461 -31 -59 -70 -127 -86
-151 -47 -68 -160 -163 -276 -231 -32 -19 142 -18 195 1 81 28 150 19 283 -41
139 -62 310 -63 538 -4 198 52 407 171 520 297 65 73 165 233 145 233 -2 0
-48 -28 -102 -63 -296 -191 -378 -218 -643 -211 -149 4 -186 -3 -309 -56 -57
-24 -84 -31 -114 -27 -21 3 -41 8 -44 11 -3 3 21 31 53 63 33 32 67 69 77 83
87 126 134 220 186 381 51 156 92 309 83 309 -4 0 -68 -60 -142 -133z"/>
<path d="M1520 2264 c0 -39 86 -320 126 -411 8 -17 14 -34 14 -38 0 -3 19 -45
42 -93 35 -72 58 -102 130 -174 48 -48 84 -90 78 -93 -19 -12 -121 4 -214 34
-125 40 -201 51 -381 56 -250 7 -329 38 -597 242 -32 25 -58 40 -58 35 0 -15
90 -144 155 -222 143 -171 280 -272 448 -330 166 -56 421 -69 577 -30 19 5 49
12 65 15 17 3 73 16 125 29 79 20 118 24 233 22 75 0 137 0 137 1 0 2 -19 12
-42 24 -68 35 -153 95 -213 152 -44 42 -67 77 -115 176 -69 139 -134 241 -219
339 -73 85 -173 184 -231 231 -25 20 -48 41 -52 46 -4 6 -8 1 -8 -11z"/>
<path d="M2908 1275 c-2 -1 -39 -5 -83 -9 -101 -7 -280 -39 -399 -71 -50 -13
-102 -26 -116 -29 -14 -2 -83 -20 -155 -40 -212 -57 -363 -89 -430 -89 -54 -1
-162 16 -222 34 -70 21 -81 25 -146 53 -43 18 -47 19 -47 9 1 -24 101 -112
170 -150 52 -29 196 -77 270 -89 14 -3 32 -7 40 -9 8 -2 38 -7 65 -11 28 -3
53 -8 56 -10 23 -14 277 -21 386 -11 165 15 234 41 460 174 118 69 226 118
305 139 65 17 226 28 254 17 10 -4 -22 -26 -98 -66 -62 -33 -132 -73 -155 -88
-23 -16 -44 -29 -48 -29 -10 0 -209 -136 -271 -186 -95 -77 -174 -148 -174
-156 0 -4 18 -27 40 -49 22 -23 40 -37 40 -31 0 20 216 236 295 295 173 128
389 238 533 270 104 24 534 -212 725 -397 34 -34 85 -89 113 -122 l51 -62 51
41 50 40 -97 76 c-53 41 -151 120 -219 175 -67 56 -142 114 -165 130 -53 36
-242 126 -265 126 -11 0 -13 3 -5 8 23 14 196 6 253 -13 60 -19 248 -112 303
-149 136 -93 247 -140 361 -153 121 -14 340 -4 511 22 17 3 48 7 70 11 241 36
455 132 506 226 8 15 4 15 -48 -3 -88 -30 -211 -58 -299 -67 -138 -15 -193
-10 -440 43 -12 3 -140 40 -285 84 -304 91 -404 113 -509 114 -75 0 -223 -9
-270 -17 -14 -3 -47 -7 -75 -10 -27 -3 -97 -12 -155 -21 -136 -21 -168 -23
-210 -14 -19 4 -60 10 -90 13 -30 4 -64 8 -75 10 -11 2 -45 8 -75 12 -30 4
-57 9 -60 9 -32 8 -217 24 -222 20z"/>
</g>
</svg>
